<?xml version="1.0" encoding="UTF-8" standalone="no"?>
<!DOCTYPE svg PUBLIC "-//W3C//DTD SVG 1.1//EN"
 "http://www.w3.org/Graphics/SVG/1.1/DTD/svg11.dtd">
<!-- Generated by graphviz version 2.38.0 (20140413.2041)
 -->
<!-- Title: snakemake_dag Pages: 1 -->
<svg width="885pt" height="404pt"
 viewBox="0.00 0.00 885.17 404.00" xmlns="http://www.w3.org/2000/svg" xmlns:xlink="http://www.w3.org/1999/xlink">
<g id="graph0" class="graph" transform="scale(1 1) rotate(0) translate(4 400)">
<title>snakemake_dag</title>
<polygon fill="white" stroke="none" points="-4,4 -4,-400 881.17,-400 881.17,4 -4,4"/>
<!-- 0 -->
<g id="node1" class="node"><title>0</title>
<path fill="none" stroke="#68d856" stroke-width="2" d="M442.17,-36C442.17,-36 412.17,-36 412.17,-36 406.17,-36 400.17,-30 400.17,-24 400.17,-24 400.17,-12 400.17,-12 400.17,-6 406.17,-0 412.17,-0 412.17,-0 442.17,-0 442.17,-0 448.17,-0 454.17,-6 454.17,-12 454.17,-12 454.17,-24 454.17,-24 454.17,-30 448.17,-36 442.17,-36"/>
<text text-anchor="middle" x="427.17" y="-15.5" font-family="sans" font-size="10.00">all</text>
</g>
<!-- 1 -->
<g id="node2" class="node"><title>1</title>
<path fill="none" stroke="#5692d8" stroke-width="2" d="M344.17,-324C344.17,-324 300.17,-324 300.17,-324 294.17,-324 288.17,-318 288.17,-312 288.17,-312 288.17,-300 288.17,-300 288.17,-294 294.17,-288 300.17,-288 300.17,-288 344.17,-288 344.17,-288 350.17,-288 356.17,-294 356.17,-300 356.17,-300 356.17,-312 356.17,-312 356.17,-318 350.17,-324 344.17,-324"/>
<text text-anchor="middle" x="322.17" y="-303.5" font-family="sans" font-size="10.00">star_index</text>
</g>
<!-- 1&#45;&gt;0 -->
<g id="edge15" class="edge"><title>1&#45;&gt;0</title>
<path fill="none" stroke="grey" stroke-width="2" d="M307.97,-287.775C285.955,-258.992 247.198,-198.86 258.17,-144 264.968,-110.007 263.286,-96.1362 288.17,-72 316.068,-44.94 359.2,-31.3794 390.014,-24.798"/>
<polygon fill="grey" stroke="grey" stroke-width="2" points="390.826,-28.2052 399.953,-22.8242 389.462,-21.3393 390.826,-28.2052"/>
</g>
<!-- 11 -->
<g id="node12" class="node"><title>11</title>
<path fill="none" stroke="#d8d356" stroke-width="2" d="M434.67,-252C434.67,-252 375.67,-252 375.67,-252 369.67,-252 363.67,-246 363.67,-240 363.67,-240 363.67,-228 363.67,-228 363.67,-222 369.67,-216 375.67,-216 375.67,-216 434.67,-216 434.67,-216 440.67,-216 446.67,-222 446.67,-228 446.67,-228 446.67,-240 446.67,-240 446.67,-246 440.67,-252 434.67,-252"/>
<text text-anchor="middle" x="405.17" y="-231.5" font-family="sans" font-size="10.00">star_mapping</text>
</g>
<!-- 1&#45;&gt;11 -->
<g id="edge24" class="edge"><title>1&#45;&gt;11</title>
<path fill="none" stroke="grey" stroke-width="2" d="M342.687,-287.697C353.039,-278.965 365.756,-268.24 377.009,-258.75"/>
<polygon fill="grey" stroke="grey" stroke-width="2" points="379.501,-261.227 384.889,-252.104 374.988,-255.876 379.501,-261.227"/>
</g>
<!-- 2 -->
<g id="node3" class="node"><title>2</title>
<path fill="none" stroke="#88d856" stroke-width="2" d="M79.1697,-180C79.1697,-180 33.1697,-180 33.1697,-180 27.1697,-180 21.1697,-174 21.1697,-168 21.1697,-168 21.1697,-156 21.1697,-156 21.1697,-150 27.1697,-144 33.1697,-144 33.1697,-144 79.1697,-144 79.1697,-144 85.1697,-144 91.1697,-150 91.1697,-156 91.1697,-156 91.1697,-168 91.1697,-168 91.1697,-174 85.1697,-180 79.1697,-180"/>
<text text-anchor="middle" x="56.1697" y="-159.5" font-family="sans" font-size="10.00">fastqc_raw</text>
</g>
<!-- 2&#45;&gt;0 -->
<g id="edge8" class="edge"><title>2&#45;&gt;0</title>
<path fill="none" stroke="grey" stroke-width="2" d="M55.1825,-143.791C55.0381,-123.5 58.1807,-90.2366 78.1697,-72 123.232,-30.8886 309.235,-21.6666 389.744,-19.5981"/>
<polygon fill="grey" stroke="grey" stroke-width="2" points="390.013,-23.0929 399.928,-19.3605 389.849,-16.0948 390.013,-23.0929"/>
</g>
<!-- 3 -->
<g id="node4" class="node"><title>3</title>
<path fill="none" stroke="#56d882" stroke-width="2" d="M152.67,-108C152.67,-108 99.6697,-108 99.6697,-108 93.6697,-108 87.6697,-102 87.6697,-96 87.6697,-96 87.6697,-84 87.6697,-84 87.6697,-78 93.6697,-72 99.6697,-72 99.6697,-72 152.67,-72 152.67,-72 158.67,-72 164.67,-78 164.67,-84 164.67,-84 164.67,-96 164.67,-96 164.67,-102 158.67,-108 152.67,-108"/>
<text text-anchor="middle" x="126.17" y="-87.5" font-family="sans" font-size="10.00">multiqc_raw</text>
</g>
<!-- 2&#45;&gt;3 -->
<g id="edge17" class="edge"><title>2&#45;&gt;3</title>
<path fill="none" stroke="grey" stroke-width="2" d="M73.4731,-143.697C82.0347,-135.135 92.5135,-124.656 101.865,-115.304"/>
<polygon fill="grey" stroke="grey" stroke-width="2" points="104.469,-117.65 109.065,-108.104 99.5194,-112.701 104.469,-117.65"/>
</g>
<!-- 3&#45;&gt;0 -->
<g id="edge11" class="edge"><title>3&#45;&gt;0</title>
<path fill="none" stroke="grey" stroke-width="2" d="M164.752,-77.2806C171.214,-75.4359 177.866,-73.6091 184.17,-72 256.668,-53.4934 342.358,-35.757 390.164,-26.2275"/>
<polygon fill="grey" stroke="grey" stroke-width="2" points="390.927,-29.6444 400.055,-24.2653 389.565,-22.7782 390.927,-29.6444"/>
</g>
<!-- 4 -->
<g id="node5" class="node"><title>4</title>
<path fill="none" stroke="#56d863" stroke-width="2" d="M687.17,-396C687.17,-396 631.17,-396 631.17,-396 625.17,-396 619.17,-390 619.17,-384 619.17,-384 619.17,-372 619.17,-372 619.17,-366 625.17,-360 631.17,-360 631.17,-360 687.17,-360 687.17,-360 693.17,-360 699.17,-366 699.17,-372 699.17,-372 699.17,-384 699.17,-384 699.17,-390 693.17,-396 687.17,-396"/>
<text text-anchor="middle" x="659.17" y="-375.5" font-family="sans" font-size="10.00">trimmomatic</text>
</g>
<!-- 4&#45;&gt;0 -->
<g id="edge9" class="edge"><title>4&#45;&gt;0</title>
<path fill="none" stroke="grey" stroke-width="2" d="M699.408,-369.743C762.398,-355.806 877.17,-318.9 877.17,-235 877.17,-235 877.17,-235 877.17,-161 877.17,-114.501 861.183,-97.3004 822.17,-72 763.516,-33.9629 551.349,-22.9521 464.562,-20.0011"/>
<polygon fill="grey" stroke="grey" stroke-width="2" points="464.485,-16.4969 454.377,-19.6725 464.259,-23.4932 464.485,-16.4969"/>
</g>
<!-- 5 -->
<g id="node6" class="node"><title>5</title>
<path fill="none" stroke="#5673d8" stroke-width="2" d="M197.17,-252C197.17,-252 127.17,-252 127.17,-252 121.17,-252 115.17,-246 115.17,-240 115.17,-240 115.17,-228 115.17,-228 115.17,-222 121.17,-216 127.17,-216 127.17,-216 197.17,-216 197.17,-216 203.17,-216 209.17,-222 209.17,-228 209.17,-228 209.17,-240 209.17,-240 209.17,-246 203.17,-252 197.17,-252"/>
<text text-anchor="middle" x="162.17" y="-231.5" font-family="sans" font-size="10.00">fastqc_trimmed</text>
</g>
<!-- 4&#45;&gt;5 -->
<g id="edge18" class="edge"><title>4&#45;&gt;5</title>
<path fill="none" stroke="grey" stroke-width="2" d="M619.157,-377.949C547.933,-378.243 395.704,-372.508 279.17,-324 242.918,-308.91 207.979,-279.81 185.87,-258.992"/>
<polygon fill="grey" stroke="grey" stroke-width="2" points="188.24,-256.414 178.604,-252.01 183.39,-261.462 188.24,-256.414"/>
</g>
<!-- 7 -->
<g id="node8" class="node"><title>7</title>
<path fill="none" stroke="#56d8a2" stroke-width="2" d="M674.17,-324C674.17,-324 644.17,-324 644.17,-324 638.17,-324 632.17,-318 632.17,-312 632.17,-312 632.17,-300 632.17,-300 632.17,-294 638.17,-288 644.17,-288 644.17,-288 674.17,-288 674.17,-288 680.17,-288 686.17,-294 686.17,-300 686.17,-300 686.17,-312 686.17,-312 686.17,-318 680.17,-324 674.17,-324"/>
<text text-anchor="middle" x="659.17" y="-303.5" font-family="sans" font-size="10.00">bbmap</text>
</g>
<!-- 4&#45;&gt;7 -->
<g id="edge20" class="edge"><title>4&#45;&gt;7</title>
<path fill="none" stroke="grey" stroke-width="2" d="M659.17,-359.697C659.17,-351.983 659.17,-342.712 659.17,-334.112"/>
<polygon fill="grey" stroke="grey" stroke-width="2" points="662.67,-334.104 659.17,-324.104 655.67,-334.104 662.67,-334.104"/>
</g>
<!-- 5&#45;&gt;0 -->
<g id="edge16" class="edge"><title>5&#45;&gt;0</title>
<path fill="none" stroke="grey" stroke-width="2" d="M115.066,-230.19C80.3459,-225.358 35.2948,-212.697 12.1697,-180 -17.7589,-137.683 12.8743,-100.494 56.1697,-72 110.58,-36.1909 306.826,-23.9751 389.758,-20.3518"/>
<polygon fill="grey" stroke="grey" stroke-width="2" points="390.144,-23.8388 399.989,-19.9237 389.851,-16.845 390.144,-23.8388"/>
</g>
<!-- 6 -->
<g id="node7" class="node"><title>6</title>
<path fill="none" stroke="#d87556" stroke-width="2" d="M198.67,-180C198.67,-180 121.67,-180 121.67,-180 115.67,-180 109.67,-174 109.67,-168 109.67,-168 109.67,-156 109.67,-156 109.67,-150 115.67,-144 121.67,-144 121.67,-144 198.67,-144 198.67,-144 204.67,-144 210.67,-150 210.67,-156 210.67,-156 210.67,-168 210.67,-168 210.67,-174 204.67,-180 198.67,-180"/>
<text text-anchor="middle" x="160.17" y="-159.5" font-family="sans" font-size="10.00">multiqc_trimmed</text>
</g>
<!-- 5&#45;&gt;6 -->
<g id="edge19" class="edge"><title>5&#45;&gt;6</title>
<path fill="none" stroke="grey" stroke-width="2" d="M161.675,-215.697C161.455,-207.983 161.19,-198.712 160.944,-190.112"/>
<polygon fill="grey" stroke="grey" stroke-width="2" points="164.443,-190 160.658,-180.104 157.446,-190.2 164.443,-190"/>
</g>
<!-- 15 -->
<g id="node16" class="node"><title>15</title>
<path fill="none" stroke="#bed856" stroke-width="2" d="M326.67,-180C326.67,-180 279.67,-180 279.67,-180 273.67,-180 267.67,-174 267.67,-168 267.67,-168 267.67,-156 267.67,-156 267.67,-150 273.67,-144 279.67,-144 279.67,-144 326.67,-144 326.67,-144 332.67,-144 338.67,-150 338.67,-156 338.67,-156 338.67,-168 338.67,-168 338.67,-174 332.67,-180 326.67,-180"/>
<text text-anchor="middle" x="303.17" y="-159.5" font-family="sans" font-size="10.00">multiqc_all</text>
</g>
<!-- 5&#45;&gt;15 -->
<g id="edge31" class="edge"><title>5&#45;&gt;15</title>
<path fill="none" stroke="grey" stroke-width="2" d="M196.662,-215.876C215.61,-206.469 239.301,-194.708 259.526,-184.667"/>
<polygon fill="grey" stroke="grey" stroke-width="2" points="261.144,-187.771 268.545,-180.19 258.031,-181.502 261.144,-187.771"/>
</g>
<!-- 6&#45;&gt;0 -->
<g id="edge2" class="edge"><title>6&#45;&gt;0</title>
<path fill="none" stroke="grey" stroke-width="2" d="M168.148,-143.819C178.448,-123.556 198.293,-90.3203 225.17,-72 275.541,-37.665 346.882,-25.569 389.919,-21.3105"/>
<polygon fill="grey" stroke="grey" stroke-width="2" points="390.313,-24.7893 399.96,-20.4089 389.687,-17.8173 390.313,-24.7893"/>
</g>
<!-- 7&#45;&gt;0 -->
<g id="edge10" class="edge"><title>7&#45;&gt;0</title>
<path fill="none" stroke="grey" stroke-width="2" d="M663.679,-287.868C673.693,-245.568 692.888,-135.041 639.17,-72 616.747,-45.6857 518.8,-29.9766 464.23,-23.1095"/>
<polygon fill="grey" stroke="grey" stroke-width="2" points="464.602,-19.629 454.251,-21.8915 463.753,-26.5775 464.602,-19.629"/>
</g>
<!-- 8 -->
<g id="node9" class="node"><title>8</title>
<path fill="none" stroke="#d85656" stroke-width="2" d="M757.17,-180C757.17,-180 703.17,-180 703.17,-180 697.17,-180 691.17,-174 691.17,-168 691.17,-168 691.17,-156 691.17,-156 691.17,-150 697.17,-144 703.17,-144 703.17,-144 757.17,-144 757.17,-144 763.17,-144 769.17,-150 769.17,-156 769.17,-156 769.17,-168 769.17,-168 769.17,-174 763.17,-180 757.17,-180"/>
<text text-anchor="middle" x="730.17" y="-159.5" font-family="sans" font-size="10.00">fastqc_clean</text>
</g>
<!-- 7&#45;&gt;8 -->
<g id="edge21" class="edge"><title>7&#45;&gt;8</title>
<path fill="none" stroke="grey" stroke-width="2" d="M667.734,-287.871C679.995,-263.35 702.654,-218.032 717.04,-189.259"/>
<polygon fill="grey" stroke="grey" stroke-width="2" points="720.233,-190.699 721.575,-180.189 713.972,-187.568 720.233,-190.699"/>
</g>
<!-- 10 -->
<g id="node11" class="node"><title>10</title>
<path fill="none" stroke="#d8b456" stroke-width="2" d="M833.67,-252C833.67,-252 748.67,-252 748.67,-252 742.67,-252 736.67,-246 736.67,-240 736.67,-240 736.67,-228 736.67,-228 736.67,-222 742.67,-216 748.67,-216 748.67,-216 833.67,-216 833.67,-216 839.67,-216 845.67,-222 845.67,-228 845.67,-228 845.67,-240 845.67,-240 845.67,-246 839.67,-252 833.67,-252"/>
<text text-anchor="middle" x="791.17" y="-231.5" font-family="sans" font-size="10.00">multiqc_clean_stat</text>
</g>
<!-- 7&#45;&gt;10 -->
<g id="edge23" class="edge"><title>7&#45;&gt;10</title>
<path fill="none" stroke="grey" stroke-width="2" d="M686.2,-290.666C704.597,-280.91 729.288,-267.816 750.101,-256.779"/>
<polygon fill="grey" stroke="grey" stroke-width="2" points="751.858,-259.809 759.053,-252.032 748.579,-253.625 751.858,-259.809"/>
</g>
<!-- 7&#45;&gt;11 -->
<g id="edge25" class="edge"><title>7&#45;&gt;11</title>
<path fill="none" stroke="grey" stroke-width="2" d="M631.987,-297.509C590.267,-286.011 509.725,-263.814 456.709,-249.204"/>
<polygon fill="grey" stroke="grey" stroke-width="2" points="457.39,-245.761 446.819,-246.478 455.53,-252.509 457.39,-245.761"/>
</g>
<!-- 7&#45;&gt;15 -->
<g id="edge30" class="edge"><title>7&#45;&gt;15</title>
<path fill="none" stroke="grey" stroke-width="2" d="M632.086,-303.222C566.086,-298.436 399.063,-283.46 354.17,-252 332.836,-237.05 319.23,-210.124 311.487,-189.791"/>
<polygon fill="grey" stroke="grey" stroke-width="2" points="314.703,-188.389 308.055,-180.14 308.108,-190.734 314.703,-188.389"/>
</g>
<!-- 8&#45;&gt;0 -->
<g id="edge1" class="edge"><title>8&#45;&gt;0</title>
<path fill="none" stroke="grey" stroke-width="2" d="M752.191,-143.697C773.617,-124.8 800.348,-94.2628 781.17,-72 740.566,-24.8645 546.929,-19.0395 464.478,-18.7388"/>
<polygon fill="grey" stroke="grey" stroke-width="2" points="464.303,-15.2388 454.299,-18.7281 464.295,-22.2388 464.303,-15.2388"/>
</g>
<!-- 9 -->
<g id="node10" class="node"><title>9</title>
<path fill="none" stroke="#56b1d8" stroke-width="2" d="M760.67,-108C760.67,-108 699.67,-108 699.67,-108 693.67,-108 687.67,-102 687.67,-96 687.67,-96 687.67,-84 687.67,-84 687.67,-78 693.67,-72 699.67,-72 699.67,-72 760.67,-72 760.67,-72 766.67,-72 772.67,-78 772.67,-84 772.67,-84 772.67,-96 772.67,-96 772.67,-102 766.67,-108 760.67,-108"/>
<text text-anchor="middle" x="730.17" y="-87.5" font-family="sans" font-size="10.00">multiqc_clean</text>
</g>
<!-- 8&#45;&gt;9 -->
<g id="edge22" class="edge"><title>8&#45;&gt;9</title>
<path fill="none" stroke="grey" stroke-width="2" d="M730.17,-143.697C730.17,-135.983 730.17,-126.712 730.17,-118.112"/>
<polygon fill="grey" stroke="grey" stroke-width="2" points="733.67,-118.104 730.17,-108.104 726.67,-118.104 733.67,-118.104"/>
</g>
<!-- 9&#45;&gt;0 -->
<g id="edge14" class="edge"><title>9&#45;&gt;0</title>
<path fill="none" stroke="grey" stroke-width="2" d="M687.629,-75.9193C682.767,-74.5415 677.871,-73.2056 673.17,-72 599.64,-53.1445 512.601,-35.4693 464.262,-26.0582"/>
<polygon fill="grey" stroke="grey" stroke-width="2" points="464.75,-22.5878 454.267,-24.1228 463.42,-29.4601 464.75,-22.5878"/>
</g>
<!-- 10&#45;&gt;0 -->
<g id="edge4" class="edge"><title>10&#45;&gt;0</title>
<path fill="none" stroke="grey" stroke-width="2" d="M798.816,-215.96C812.045,-183.588 834.567,-112.797 799.17,-72 756.026,-22.2743 549.683,-18.0127 464.292,-18.4356"/>
<polygon fill="grey" stroke="grey" stroke-width="2" points="464.233,-14.9358 454.26,-18.51 464.285,-21.9356 464.233,-14.9358"/>
</g>
<!-- 11&#45;&gt;0 -->
<g id="edge5" class="edge"><title>11&#45;&gt;0</title>
<path fill="none" stroke="grey" stroke-width="2" d="M391.397,-215.664C374.076,-192.644 345.262,-149.986 334.17,-108 330.083,-92.5307 326.131,-85.8339 334.17,-72 346.26,-51.1934 369.915,-37.8753 390.341,-29.7934"/>
<polygon fill="grey" stroke="grey" stroke-width="2" points="391.564,-33.0727 399.744,-26.3387 389.15,-26.5022 391.564,-33.0727"/>
</g>
<!-- 12 -->
<g id="node13" class="node"><title>12</title>
<path fill="none" stroke="#56d8c1" stroke-width="2" d="M413.17,-108C413.17,-108 355.17,-108 355.17,-108 349.17,-108 343.17,-102 343.17,-96 343.17,-96 343.17,-84 343.17,-84 343.17,-78 349.17,-72 355.17,-72 355.17,-72 413.17,-72 413.17,-72 419.17,-72 425.17,-78 425.17,-84 425.17,-84 425.17,-96 425.17,-96 425.17,-102 419.17,-108 413.17,-108"/>
<text text-anchor="middle" x="384.17" y="-87.5" font-family="sans" font-size="10.00">samtools_bai</text>
</g>
<!-- 11&#45;&gt;12 -->
<g id="edge26" class="edge"><title>11&#45;&gt;12</title>
<path fill="none" stroke="grey" stroke-width="2" d="M402.637,-215.871C399.058,-191.67 392.483,-147.211 388.221,-118.393"/>
<polygon fill="grey" stroke="grey" stroke-width="2" points="391.637,-117.57 386.712,-108.189 384.713,-118.594 391.637,-117.57"/>
</g>
<!-- 13 -->
<g id="node14" class="node"><title>13</title>
<path fill="none" stroke="#9fd856" stroke-width="2" d="M485.17,-180C485.17,-180 455.17,-180 455.17,-180 449.17,-180 443.17,-174 443.17,-168 443.17,-168 443.17,-156 443.17,-156 443.17,-150 449.17,-144 455.17,-144 455.17,-144 485.17,-144 485.17,-144 491.17,-144 497.17,-150 497.17,-156 497.17,-156 497.17,-168 497.17,-168 497.17,-174 491.17,-180 485.17,-180"/>
<text text-anchor="middle" x="470.17" y="-159.5" font-family="sans" font-size="10.00">sort</text>
</g>
<!-- 11&#45;&gt;13 -->
<g id="edge27" class="edge"><title>11&#45;&gt;13</title>
<path fill="none" stroke="grey" stroke-width="2" d="M421.237,-215.697C429.108,-207.22 438.725,-196.864 447.343,-187.583"/>
<polygon fill="grey" stroke="grey" stroke-width="2" points="450.047,-189.814 454.287,-180.104 444.918,-185.051 450.047,-189.814"/>
</g>
<!-- 14 -->
<g id="node15" class="node"><title>14</title>
<path fill="none" stroke="#56d0d8" stroke-width="2" d="M618.67,-108C618.67,-108 565.67,-108 565.67,-108 559.67,-108 553.67,-102 553.67,-96 553.67,-96 553.67,-84 553.67,-84 553.67,-78 559.67,-72 565.67,-72 565.67,-72 618.67,-72 618.67,-72 624.67,-72 630.67,-78 630.67,-84 630.67,-84 630.67,-96 630.67,-96 630.67,-102 624.67,-108 618.67,-108"/>
<text text-anchor="middle" x="592.17" y="-87.5" font-family="sans" font-size="10.00">multiqc_star</text>
</g>
<!-- 11&#45;&gt;14 -->
<g id="edge28" class="edge"><title>11&#45;&gt;14</title>
<path fill="none" stroke="grey" stroke-width="2" d="M444.783,-215.848C464.159,-206.573 487.309,-194.127 506.17,-180 531.148,-161.29 555.467,-135.16 571.834,-116.054"/>
<polygon fill="grey" stroke="grey" stroke-width="2" points="574.57,-118.238 578.341,-108.337 569.219,-113.726 574.57,-118.238"/>
</g>
<!-- 11&#45;&gt;15 -->
<g id="edge29" class="edge"><title>11&#45;&gt;15</title>
<path fill="none" stroke="grey" stroke-width="2" d="M380.218,-215.876C367.128,-206.893 350.909,-195.763 336.734,-186.034"/>
<polygon fill="grey" stroke="grey" stroke-width="2" points="338.443,-182.962 328.218,-180.19 334.482,-188.734 338.443,-182.962"/>
</g>
<!-- 12&#45;&gt;0 -->
<g id="edge13" class="edge"><title>12&#45;&gt;0</title>
<path fill="none" stroke="grey" stroke-width="2" d="M394.799,-71.6966C399.798,-63.5589 405.861,-53.689 411.382,-44.7013"/>
<polygon fill="grey" stroke="grey" stroke-width="2" points="414.411,-46.4571 416.663,-36.1043 408.446,-42.7931 414.411,-46.4571"/>
</g>
<!-- 13&#45;&gt;0 -->
<g id="edge7" class="edge"><title>13&#45;&gt;0</title>
<path fill="none" stroke="grey" stroke-width="2" d="M486.033,-143.788C500.864,-125.499 518.954,-95.9721 506.17,-72 497.074,-54.9451 479.785,-42.4071 463.694,-33.8206"/>
<polygon fill="grey" stroke="grey" stroke-width="2" points="464.942,-30.5327 454.429,-29.2173 461.827,-36.8015 464.942,-30.5327"/>
</g>
<!-- 16 -->
<g id="node17" class="node"><title>16</title>
<path fill="none" stroke="#d89556" stroke-width="2" d="M485.17,-108C485.17,-108 455.17,-108 455.17,-108 449.17,-108 443.17,-102 443.17,-96 443.17,-96 443.17,-84 443.17,-84 443.17,-78 449.17,-72 455.17,-72 455.17,-72 485.17,-72 485.17,-72 491.17,-72 497.17,-78 497.17,-84 497.17,-84 497.17,-96 497.17,-96 497.17,-102 491.17,-108 485.17,-108"/>
<text text-anchor="middle" x="470.17" y="-87.5" font-family="sans" font-size="10.00">counts</text>
</g>
<!-- 13&#45;&gt;16 -->
<g id="edge32" class="edge"><title>13&#45;&gt;16</title>
<path fill="none" stroke="grey" stroke-width="2" d="M470.17,-143.697C470.17,-135.983 470.17,-126.712 470.17,-118.112"/>
<polygon fill="grey" stroke="grey" stroke-width="2" points="473.67,-118.104 470.17,-108.104 466.67,-118.104 473.67,-118.104"/>
</g>
<!-- 14&#45;&gt;0 -->
<g id="edge12" class="edge"><title>14&#45;&gt;0</title>
<path fill="none" stroke="grey" stroke-width="2" d="M553.485,-72.5881C526.338,-61.0713 490.274,-45.7717 463.633,-34.4691"/>
<polygon fill="grey" stroke="grey" stroke-width="2" points="464.85,-31.1838 454.278,-30.5003 462.116,-37.6279 464.85,-31.1838"/>
</g>
<!-- 15&#45;&gt;0 -->
<g id="edge6" class="edge"><title>15&#45;&gt;0</title>
<path fill="none" stroke="grey" stroke-width="2" d="M297.339,-143.658C292.03,-124.448 286.975,-93.3709 301.17,-72 320.785,-42.4693 360.413,-29.3558 390.018,-23.5551"/>
<polygon fill="grey" stroke="grey" stroke-width="2" points="390.781,-26.9746 400.023,-21.7933 389.567,-20.0807 390.781,-26.9746"/>
</g>
<!-- 16&#45;&gt;0 -->
<g id="edge3" class="edge"><title>16&#45;&gt;0</title>
<path fill="none" stroke="grey" stroke-width="2" d="M459.541,-71.6966C454.542,-63.5589 448.479,-53.689 442.958,-44.7013"/>
<polygon fill="grey" stroke="grey" stroke-width="2" points="445.893,-42.7931 437.677,-36.1043 439.929,-46.4571 445.893,-42.7931"/>
</g>
</g>
</svg>
